# xmcd CD database file
#
# Track frame offsets:
#	150
#	15060
#	27811
#	41360
#	56390
#	67785
#	83613
#	97770
#	109648
#	119685
#
# Disc length: 1746 seconds
#
# Revision: 3
# Processed by: cddbd v1.4PL0 Copyright (c) Steve Scherf et al.
# Submitted via: Feurio! 1.66 - http://www.feurio.com
#
DISCID=6006d00a
DTITLE=Randy Travis - Wind in the Wire
DYEAR=1900
DGENRE=country
TTITLE0=Down At The Old Corral
TTITLE1=Cowboy Boogie
TTITLE2=Blue Mesa
TTITLE3=Memories Of Old Santa Fe
TTITLE4=Roamin' Wyomin'
TTITLE5=Wind In The Wire
TTITLE6=The Old Chisholm Trail
TTITLE7=Paniolo County
TTITLE8=Hula Hands
TTITLE9=Beyon The Reef
EXTD=
EXTT0=
EXTT1=
EXTT2=
EXTT3=
EXTT4=
EXTT5=
EXTT6=
EXTT7=
EXTT8=
EXTT9=
PLAYORDER=
